<?xml version="1.0" encoding="UTF-8"?>
<svg width="253px" height="80px" viewBox="0 0 253 80" version="1.1" xmlns="http://www.w3.org/2000/svg" xmlns:xlink="http://www.w3.org/1999/xlink">
    <title>logo_mpd</title>
    <defs>
        <polygon id="path-1" points="0 0 80.2212961 0 80.2212961 80 0 80"></polygon>
    </defs>
    <g id="Demo-Screens-MpD" stroke="none" stroke-width="1" fill="none" fill-rule="evenodd">
        <g id="pagina-inicial" transform="translate(-285.000000, -3793.000000)">
            <g id="footer" transform="translate(0.000000, 3665.000000)">
                <g id="logo_mpd" transform="translate(285.000000, 128.000000)">
                    <g id="Group">
                        <g id="Group-3">
                            <mask id="mask-2" fill="white">
                                <use xlink:href="#path-1"></use>
                            </mask>
                            <g id="Clip-2"></g>
                            <path d="M40.0216038,79.9946024 C18.9033592,80.2580001 -0.0200435681,62.9079205 -0.000157836383,39.9624188 C0.0183377325,17.8427046 18.0404907,-0.0726123471 40.2447839,-0.000219950593 C62.4035882,0.0740361186 80.299225,18.0434564 80.2212961,40.1403902 C80.1400137,63.0616878 61.1654358,80.3505452 40.0216038,79.9946024" id="Fill-1" fill="#000000" mask="url(#mask-2)"></path>
                        </g>
                        <path d="M44.6985785,69.9907566 C42.0133089,73.2269892 38.1936588,75.4993286 34.0726443,76.3151497 C25.5974845,77.9923525 16.8166958,73.3650951 13.0013102,65.700933 C8.58603912,56.8351078 11.1106758,45.0192281 18.9688917,38.8699589 C20.9689839,37.305234 23.2789696,36.1363176 25.7453236,35.5283672 C29.9729528,34.4861664 34.4763587,35.0300471 38.5973732,36.4367334 C34.3839593,41.4569517 32.3540149,48.3209542 33.4386421,54.7891482 C34.5204261,61.2516471 38.7779075,67.1617226 44.6985785,69.9907566" id="Fill-4" fill="#7AB829"></path>
                        <path d="M69.3345403,33.5204222 C72.7447899,36.0063273 75.2751127,39.7024381 76.3739552,43.8029001 C78.6327658,52.2358987 74.6340029,61.4135299 67.2662147,65.7902035 C58.7413013,70.8545588 46.7961876,69.1204051 40.124949,61.6157054 C38.4276425,59.7078516 37.1027769,57.4568689 36.3266217,55.0122532 C34.9946484,50.8192461 35.2235147,46.2403969 36.3365724,41.9847438 C41.6303489,45.8901491 48.6086379,47.4648404 54.9770908,45.9257434 C61.338436,44.3894939 66.9278906,39.6867766 69.3345403,33.5204222" id="Fill-6" fill="#7AB829"></path>
                        <path d="M34.264693,10.2174115 C36.9584917,6.93561816 40.8293169,4.59636157 45.0356231,3.70935192 C53.682788,1.88265307 62.7521472,6.35756693 66.7878699,13.9533879 C71.4604379,22.7409057 69.0751111,34.5994986 61.1344465,40.8854499 C59.1144529,42.4843453 56.7689289,43.6931273 54.254243,44.3437909 C49.944165,45.4600277 45.3241937,44.9944544 41.0809276,43.6603805 C45.3099784,38.5675498 47.2702678,31.6679531 46.0520169,25.2196919 C44.8337659,18.7771258 40.3730059,12.9439339 34.264693,10.2174115" id="Fill-8" fill="#FFFFFF"></path>
                        <path d="M9.99051041,44.3585981 C6.80344093,41.5751248 4.58159008,37.6383965 3.80969948,33.4055238 C2.22327238,24.699161 6.89726189,15.7350956 14.5394053,11.8894888 C23.3827413,7.44162656 35.089038,10.136826 41.1220099,18.2508999 C42.6558404,20.3139448 43.7944856,22.693067 44.3758912,25.2288041 C45.370962,29.5727309 44.7895564,34.1857506 43.3566545,38.4001143 C38.4125743,34.0348308 31.6148195,31.8920547 25.1838194,32.9456456 C18.7585053,33.9978128 12.8534711,38.3118405 9.99051041,44.3585981" id="Fill-10" fill="#7AB829"></path>
                        <path d="M42.1268892,40.0457094 C42.1268892,41.1989643 41.1929442,42.1343822 40.0415052,42.1343822 C38.8900661,42.1343822 37.9561212,41.1989643 37.9561212,40.0457094 C37.9561212,38.8910307 38.8900661,37.9556128 40.0415052,37.9556128 C41.1929442,37.9556128 42.1268892,38.8910307 42.1268892,40.0457094" id="Fill-12" fill="#FFFFFF"></path>
                    </g>
                    <text id="MpD" font-family="MullerBlackItalic" font-size="71.1885756" font-style="italic" font-weight="normal" letter-spacing="-2.35472448" fill="#FFFFFF">
                        <tspan x="95.2424869" y="62.5426291">M</tspan>
                        <tspan x="157.384612" y="62.5426291" letter-spacing="-2.92423305">pD</tspan>
                    </text>
                </g>
            </g>
        </g>
    </g>
</svg>