<?xml version="1.0" encoding="UTF-8"?>
<svg width="145px" height="46px" viewBox="0 0 145 46" version="1.1" xmlns="http://www.w3.org/2000/svg" xmlns:xlink="http://www.w3.org/1999/xlink">
    <title>logo_mpd</title>
    <defs>
        <polygon id="path-1" points="0 0 46.0708648 0 46.0708648 46 0 46"></polygon>
    </defs>
    <g id="Demo-Screens-MpD" stroke="none" stroke-width="1" fill="none" fill-rule="evenodd">
        <g id="pagina-inicial" transform="translate(-287.000000, -27.000000)">
            <g id="logo_mpd" transform="translate(287.000000, 27.000000)">
                <g id="Group">
                    <g id="Group-3">
                        <mask id="mask-2" fill="white">
                            <use xlink:href="#path-1"></use>
                        </mask>
                        <g id="Clip-2"></g>
                        <path d="M22.9842945,45.9968964 C10.856146,46.1483501 -0.0115109648,36.1720543 -9.0644991e-05,22.9783908 C0.0105313083,10.2595551 10.3606031,-0.0417520996 23.1124663,-0.000126471591 C35.8382053,0.0425707682 46.1156192,10.3749874 46.0708648,23.0807244 C46.0241846,36.2604705 35.1271379,46.2015635 22.9842945,45.9968964" id="Fill-1" fill="#000000" mask="url(#mask-2)"></path>
                    </g>
                    <path d="M25.670268,40.244685 C24.1281252,42.1055188 21.9345109,43.4121139 19.5678238,43.881211 C14.7005634,44.8456027 9.65778113,42.1849297 7.46661591,37.7780365 C4.93093813,32.680187 6.38082987,25.8860561 10.8937812,22.3502264 C12.0424285,21.4505096 13.3690468,20.7783826 14.785467,20.4288111 C17.2133825,19.8295457 19.7996759,20.1422771 22.1663629,20.9511217 C19.7466112,23.8377472 18.5808198,27.7845487 19.2037181,31.5037602 C19.8249837,35.2196971 22.2700432,38.6179905 25.670268,40.244685" id="Fill-4" fill="#7AB829"></path>
                    <path d="M39.8186316,19.2742428 C41.7771284,20.7036382 43.2302856,22.8289019 43.8613477,25.1866675 C45.1585763,30.0356418 42.862098,35.3127797 38.630798,37.829367 C33.7349642,40.7413713 26.874919,39.7442329 23.0436454,35.4290306 C22.0688871,34.3320147 21.3080205,33.0376996 20.8622767,31.6320456 C20.0973282,29.2210665 20.2287655,26.5882282 20.8679914,24.1412277 C23.9081923,26.3868357 27.9158041,27.2922832 31.5731887,26.4073024 C35.2264914,25.523959 38.4364994,22.8198966 39.8186316,19.2742428" id="Fill-6" fill="#7AB829"></path>
                    <path d="M19.6781168,5.87501161 C21.2251579,3.98798044 23.4481619,2.6429079 25.8638318,2.13287735 C30.8298743,1.08252551 36.0383817,3.65560098 38.3560859,8.02319807 C41.0395286,13.0760208 39.6696421,19.8947117 35.1093408,23.5091337 C33.9492641,24.4284985 32.6022363,25.1235482 31.1580592,25.4976797 C28.6827936,26.1395159 26.029557,25.8718113 23.5926613,25.1047188 C26.0213932,22.1763412 27.1471819,18.209073 26.4475438,14.5013229 C25.7479057,10.7968473 23.1861038,7.44276202 19.6781168,5.87501161" id="Fill-8" fill="#FFFFFF"></path>
                    <path d="M5.73752205,25.5061939 C3.907197,23.9056967 2.6311943,21.642078 2.1878997,19.2081762 C1.27681908,14.2020176 3.96107811,9.04767998 8.3499396,6.83645604 C13.4286426,4.27893527 20.1515359,5.82867497 23.6162547,10.4942674 C24.4971292,11.6805183 25.15105,13.0485135 25.4849496,14.5065623 C26.0564159,17.0043203 25.7225163,19.6568066 24.8996048,22.0800657 C22.0602335,19.5700277 18.156302,18.3379315 14.4629967,18.9437462 C10.7729569,19.5487424 7.38171234,22.0293083 5.73752205,25.5061939" id="Fill-10" fill="#7AB829"></path>
                    <path d="M24.193354,23.0262829 C24.193354,23.6894045 23.656992,24.2272698 22.9957239,24.2272698 C22.3344557,24.2272698 21.7980937,23.6894045 21.7980937,23.0262829 C21.7980937,22.3623427 22.3344557,21.8244774 22.9957239,21.8244774 C23.656992,21.8244774 24.193354,22.3623427 24.193354,23.0262829" id="Fill-12" fill="#FFFFFF"></path>
                </g>
                <text id="MpD" font-family="MullerBlackItalic" font-size="40.8833988" font-style="italic" font-weight="normal" letter-spacing="-1.35231161" fill="#7AB829">
                    <tspan x="54.6974925" y="35.9370991">M</tspan>
                    <tspan x="90.3855402" y="35.9370991" letter-spacing="-1.67937877">pD</tspan>
                </text>
            </g>
        </g>
    </g>
</svg>